<?xml version="1.0" encoding="utf-8"?>
<!-- Generator: Adobe Illustrator 19.2.1, SVG Export Plug-In . SVG Version: 6.00 Build 0)  -->
<svg version="1.1" id="Capa_1" xmlns="http://www.w3.org/2000/svg" xmlns:xlink="http://www.w3.org/1999/xlink" x="0px" y="0px"
	 viewBox="0 0 50 50" style="enable-background:new 0 0 50 50;" xml:space="preserve">
<style type="text/css">
	.st0{clip-path:url(#SVGID_2_);}
	.st1{fill:#F7D531;}
	.st2{fill:#1F449B;}
	.st3{fill:#D02A36;}
	.st4{fill:#FFFFFF;}
	.st5{fill:#EDEEF0;}
	.st6{fill:#C8523B;}
	.st7{opacity:0.3;fill:#5B5B5F;enable-background:new    ;}
	.st8{fill:#5C546A;}
	.st9{fill:#8A8895;}
	.st10{fill:#7E5C62;}
	.st11{fill:#FCC78D;}
	.st12{fill:#FFB87F;}
	.st13{fill:#FFE0B1;}
	.st14{fill:#527991;}
	.st15{fill:#5D647F;}
	.st16{fill:#23A24D;}
	.st17{fill:#231F20;}
	.st18{fill:#84BE55;}
	.st19{fill:#E7ECED;}
</style>
<g>
	<path d="M37.3,2.5c0-0.6-0.3-1.1-0.7-1.5c-0.4-0.4-1-0.5-1.6-0.4L14.5,4.8h22.8V2.5z"/>
	<path d="M20.4,33.7h3.5v-4.1h-4.1C19.9,31,20.1,32.4,20.4,33.7z"/>
	<path d="M25.7,29.5v4.1h3.5c0.3-1.3,0.6-2.7,0.6-4.1H25.7z"/>
	<path d="M25.7,18.4v3.3h2.8C27.8,20.1,26.8,18.8,25.7,18.4z"/>
	<path d="M31.7,27.7h3.4c0,0,0,0,0,0c-0.1-1.5-0.6-2.9-1.3-4.2c0,0-0.1,0-0.1,0h-2.7C31.4,24.8,31.6,26.2,31.7,27.7z"/>
	<path d="M21.1,21.7h2.8v-3.3C22.8,18.8,21.8,20.1,21.1,21.7z"/>
	<path d="M31.7,29.5c-0.1,1.5-0.3,2.9-0.6,4.1h2.7c0,0,0.1,0,0.1,0c0.7-1.2,1.1-2.7,1.3-4.2c0,0,0,0,0,0L31.7,29.5L31.7,29.5z"/>
	<path d="M19.8,27.7h4.1v-4.1h-3.5C20.1,24.8,19.9,26.2,19.8,27.7z"/>
	<path d="M18,27.7c0.1-1.5,0.3-2.9,0.6-4.1h-2.7c0,0-0.1,0-0.1,0c-0.7,1.2-1.1,2.7-1.3,4.2c0,0,0,0,0,0L18,27.7L18,27.7z"/>
	<path d="M29.2,23.6h-3.5v4.1h4.1C29.8,26.2,29.6,24.8,29.2,23.6z"/>
	<path d="M20.4,19.2c-1.3,0.6-2.4,1.5-3.3,2.5h2.1C19.5,20.8,19.9,20,20.4,19.2z"/>
	<path d="M29.3,38c1.3-0.6,2.4-1.5,3.3-2.5h-2.1C30.2,36.4,29.8,37.3,29.3,38z"/>
	<path d="M17,35.5c0.9,1,2.1,1.9,3.3,2.5c-0.5-0.7-0.9-1.6-1.3-2.5H17z"/>
	<path d="M38.6,7H11.4c-0.9,0-1.6,0.7-1.6,1.6v39.1c0,0.9,0.7,1.6,1.6,1.6h27.2c0.9,0,1.6-0.7,1.6-1.6V8.6C40.2,7.7,39.5,7,38.6,7z
		 M24.8,40.8c-6.7,0-12.2-5.5-12.2-12.2c0-6.7,5.5-12.2,12.2-12.2S37,21.9,37,28.6C37,35.4,31.6,40.8,24.8,40.8z"/>
	<path d="M25.7,38.8c1.1-0.4,2.1-1.6,2.8-3.3h-2.8V38.8z"/>
	<path d="M23.9,38.8v-3.3h-2.8C21.8,37.2,22.8,38.4,23.9,38.8z"/>
	<path d="M18,29.5h-3.4c0,0,0,0,0,0c0.1,1.5,0.6,2.9,1.3,4.2c0,0,0.1,0,0.1,0h2.7C18.2,32.4,18,31,18,29.5z"/>
	<path d="M32.6,21.7c-0.9-1-2.1-1.9-3.3-2.5c0.5,0.7,0.9,1.6,1.3,2.5H32.6z"/>
</g>
</svg>
