<?xml version="1.0" encoding="utf-8"?>
<!-- Generator: Adobe Illustrator 19.2.1, SVG Export Plug-In . SVG Version: 6.00 Build 0)  -->
<svg version="1.1" id="Capa_1" xmlns="http://www.w3.org/2000/svg" xmlns:xlink="http://www.w3.org/1999/xlink" x="0px" y="0px"
	 viewBox="0 0 50 50" style="enable-background:new 0 0 50 50;" xml:space="preserve">
<style type="text/css">
	.st0{clip-path:url(#SVGID_2_);}
	.st1{fill:#F7D531;}
	.st2{fill:#1F449B;}
	.st3{fill:#D02A36;}
	.st4{fill:#FFFFFF;}
	.st5{fill:#EDEEF0;}
	.st6{fill:#C8523B;}
	.st7{opacity:0.3;fill:#5B5B5F;enable-background:new    ;}
	.st8{fill:#5C546A;}
	.st9{fill:#8A8895;}
	.st10{fill:#7E5C62;}
	.st11{fill:#FCC78D;}
	.st12{fill:#FFB87F;}
	.st13{fill:#FFE0B1;}
	.st14{fill:#527991;}
	.st15{fill:#5D647F;}
	.st16{fill:#23A24D;}
	.st17{fill:#231F20;}
	.st18{fill:#84BE55;}
	.st19{fill:#E7ECED;}
</style>
<g>
	<g>
		<path d="M25.5,23.7c2.3,0,3.5-1.9,3.5-4.2V4.9c0-2.3-1.2-4.2-3.5-4.2S22,2.6,22,4.9v14.6C22,21.8,23.2,23.7,25.5,23.7z"/>
		<path d="M34.1,4.4c-0.5-0.2-1-0.2-1.5,0.2C32.1,4.8,32,5.4,32,5.9v5.5c0,0.6,0.2,1.2,0.7,1.5c4.5,2.6,7.4,7.5,7.4,13
			c0,8.3-6.8,15-15,15c-8.3,0-15-6.7-15-15c0-5.5,2.8-10.4,7.3-13c0.5-0.3,0.6-0.9,0.6-1.5V5.9c0-0.6-0.1-1.1-0.6-1.4
			c-0.5-0.3-1-0.4-1.5-0.2C7.5,7.9,1.7,16.2,1.7,25.9c0,12.9,10.5,23.4,23.4,23.4c12.9,0,23.3-10.5,23.3-23.4
			C48.4,16.2,42.5,7.9,34.1,4.4z"/>
	</g>
</g>
</svg>
