<?xml version="1.0" encoding="utf-8"?>
<!-- Generator: Adobe Illustrator 19.2.1, SVG Export Plug-In . SVG Version: 6.00 Build 0)  -->
<svg version="1.1" id="Capa_1" xmlns="http://www.w3.org/2000/svg" xmlns:xlink="http://www.w3.org/1999/xlink" x="0px" y="0px"
	 viewBox="0 0 50 50" style="enable-background:new 0 0 50 50;" xml:space="preserve">
<style type="text/css">
	.st0{clip-path:url(#SVGID_2_);}
	.st1{fill:#F7D531;}
	.st2{fill:#1F449B;}
	.st3{fill:#D02A36;}
	.st4{fill:#FFFFFF;}
	.st5{fill:#EDEEF0;}
	.st6{fill:#C8523B;}
	.st7{opacity:0.3;fill:#5B5B5F;enable-background:new    ;}
	.st8{fill:#5C546A;}
	.st9{fill:#8A8895;}
	.st10{fill:#7E5C62;}
	.st11{fill:#FCC78D;}
	.st12{fill:#FFB87F;}
	.st13{fill:#FFE0B1;}
	.st14{fill:#527991;}
	.st15{fill:#5D647F;}
	.st16{fill:#23A24D;}
	.st17{fill:#231F20;}
	.st18{fill:#84BE55;}
	.st19{fill:#E7ECED;}
</style>
<g>
	<path d="M19.1,39.9h-5.9L0.6,9.5H7L16.1,33l9.1-23.5h6.4L19.1,39.9z"/>
	<path d="M45.5,24.1c-1.5-1.4-3.2-1.9-5.3-1.9c-2.5,0-3.9,0.8-3.9,2.1c0,1.4,1.3,2.2,4,2.3c4,0.3,9.1,1.2,9.1,6.8c0,3.8-3.1,7-9.1,7
		c-3.4,0-6.7-0.6-9.8-3.8l2.6-3.8c1.5,1.7,5,2.9,7.3,3c2,0,3.8-1,3.8-2.5c0-1.5-1.2-2.1-4.2-2.2c-4-0.3-8.8-1.8-8.8-6.6
		c0-4.9,5.1-6.6,9-6.6c3.3,0,5.8,0.6,8.3,2.8L45.5,24.1z"/>
</g>
</svg>
