<?xml version="1.0" encoding="utf-8"?>
<!-- Generator: Adobe Illustrator 19.2.1, SVG Export Plug-In . SVG Version: 6.00 Build 0)  -->
<svg version="1.1" id="Capa_1" xmlns="http://www.w3.org/2000/svg" xmlns:xlink="http://www.w3.org/1999/xlink" x="0px" y="0px"
	 viewBox="0 0 50 50" style="enable-background:new 0 0 50 50;" xml:space="preserve">
<style type="text/css">
	.st0{clip-path:url(#SVGID_2_);}
	.st1{fill:#F7D531;}
	.st2{fill:#1F449B;}
	.st3{fill:#D02A36;}
	.st4{fill:#FFFFFF;}
	.st5{fill:#EDEEF0;}
	.st6{fill:#C8523B;}
	.st7{opacity:0.3;fill:#5B5B5F;enable-background:new    ;}
	.st8{fill:#5C546A;}
	.st9{fill:#8A8895;}
	.st10{fill:#7E5C62;}
	.st11{fill:#FCC78D;}
	.st12{fill:#FFB87F;}
	.st13{fill:#FFE0B1;}
	.st14{fill:#527991;}
	.st15{fill:#5D647F;}
	.st16{fill:#23A24D;}
	.st17{fill:#231F20;}
	.st18{fill:#84BE55;}
	.st19{fill:#E7ECED;}
</style>
<g>
	<g id="XMLID_39_">
		<g>
			<rect x="1.6" y="12.1" class="st16" width="46.8" height="25.9"/>
		</g>
		<g>
			<g>
				<path class="st17" d="M48.4,38.9H1.6c-0.5,0-1-0.4-1-1V12.1c0-0.5,0.4-1,1-1h46.8c0.5,0,1,0.4,1,1v25.9
					C49.4,38.5,48.9,38.9,48.4,38.9z M2.6,36.9h44.8V13.1H2.6V36.9z"/>
			</g>
		</g>
	</g>
	<g>
		<g id="XMLID_37_">
			<g>
				<path class="st18" d="M44.9,20v10c-2.4,0-4.4,2-4.4,4.4H9.6c0-2.4-2-4.4-4.5-4.4c0,0,0,0,0,0V20c0,0,0,0,0,0
					c2.5,0,4.5-2,4.5-4.5c0,0,0,0,0,0h30.9c0,0,0,0,0,0C40.4,18,42.4,20,44.9,20C44.9,20,44.9,20,44.9,20z"/>
			</g>
			<g>
				<g>
					<path class="st17" d="M40.5,35.5H9.6c-0.5,0-1-0.4-1-1C8.6,32.6,7,31,5.1,31h0c-0.5,0-1-0.4-1-1V20c0-0.5,0.4-1,1-1h0
						c1.9,0,3.5-1.6,3.5-3.5v0c0-0.5,0.4-1,1-1h30.9c0.5,0,1,0.4,1,1v0c0,1.9,1.6,3.5,3.5,3.5h0c0.5,0,1,0.4,1,1v10c0,0.5-0.4,1-1,1
						c-1.9,0-3.4,1.5-3.4,3.4C41.5,35,41,35.5,40.5,35.5z M10.5,33.5h29.1c0.2-1.1,0.7-2,1.5-2.8c0.8-0.8,1.8-1.3,2.8-1.5v-8.2
						c-2.2-0.4-4-2.2-4.4-4.4H10.5c-0.4,2.2-2.2,4-4.4,4.4v8.2C8.3,29.5,10,31.3,10.5,33.5z"/>
				</g>
			</g>
		</g>
	</g>
	<g>
		<rect x="43.4" y="33" class="st17" width="2.5" height="2"/>
	</g>
	<g>
		<rect x="43.4" y="15" class="st17" width="2.5" height="2"/>
	</g>
	<g>
		<rect x="4.1" y="15" class="st17" width="2.5" height="2"/>
	</g>
	<g>
		<rect x="4.1" y="33" class="st17" width="2.5" height="2"/>
	</g>
	<g id="XMLID_35_">
		<g>
			<path class="st19" d="M25,19.5c3,0,5.5,2.4,5.5,5.5S28,30.5,25,30.5S19.5,28,19.5,25S22,19.5,25,19.5z"/>
		</g>
		<g>
			<g>
				<path class="st17" d="M25,31.5c-3.6,0-6.5-2.9-6.5-6.5s2.9-6.5,6.5-6.5s6.5,2.9,6.5,6.5S28.6,31.5,25,31.5z M25,20.5
					c-2.5,0-4.5,2-4.5,4.5s2,4.5,4.5,4.5s4.5-2,4.5-4.5S27.5,20.5,25,20.5z"/>
			</g>
		</g>
	</g>
	<g>
		<rect x="33.5" y="24" class="st17" width="4" height="2"/>
	</g>
	<g>
		<rect x="12.6" y="24" class="st17" width="4" height="2"/>
	</g>
</g>
</svg>
