<?xml version="1.0" encoding="utf-8"?>
<!-- Generator: Adobe Illustrator 19.2.1, SVG Export Plug-In . SVG Version: 6.00 Build 0)  -->
<svg version="1.1" id="Capa_1" xmlns="http://www.w3.org/2000/svg" xmlns:xlink="http://www.w3.org/1999/xlink" x="0px" y="0px"
	 viewBox="0 0 50 50" style="enable-background:new 0 0 50 50;" xml:space="preserve">
<style type="text/css">
	.st0{clip-path:url(#SVGID_2_);}
	.st1{fill:#F7D531;}
	.st2{fill:#1F449B;}
	.st3{fill:#D02A36;}
	.st4{fill:#FFFFFF;}
	.st5{fill:#EDEEF0;}
	.st6{fill:#C8523B;}
	.st7{opacity:0.3;fill:#5B5B5F;enable-background:new    ;}
	.st8{fill:#5C546A;}
	.st9{fill:#8A8895;}
	.st10{fill:#7E5C62;}
	.st11{fill:#FCC78D;}
	.st12{fill:#FFB87F;}
	.st13{fill:#FFE0B1;}
	.st14{fill:#527991;}
	.st15{fill:#5D647F;}
	.st16{fill:#23A24D;}
	.st17{fill:#231F20;}
	.st18{fill:#84BE55;}
	.st19{fill:#E7ECED;}
</style>
<g>
	<g>
		<rect x="12.8" y="25" class="st8" width="1.5" height="13"/>
	</g>
	<g>
		<path class="st9" d="M12.8,24.2h-2.3c-0.4,0-0.8-0.3-0.8-0.8v-4.6c0-0.4,0.3-0.8,0.8-0.8h2.3V24.2z"/>
	</g>
	<g>
		<path class="st10" d="M31.5,0.6h-12c-1.7,0-3.2,1.2-3.6,2.8c-3.2,0.4-5.6,3.1-5.6,6.4v4.6c0,2.4,1,4.6,2.8,6.2v-5.2
			c0-2.5,2.1-4.6,4.6-4.6h15.7c2,0,3.7,1.7,3.7,3.7v6.2c1.8-1.6,2.8-3.8,2.8-6.2V8.9C39.8,4.3,36,0.6,31.5,0.6z"/>
	</g>
	<g>
		<g>
			<path class="st11" d="M25,33.8c-3.2,0-6.2-1.9-8.4-4.2c0-0.2,0,3.2,0,3.8c0.2,0.1,0.1,1.8,0.1,2.1c0.5,3.7,4,6.6,8.3,6.6
				c4.2,0,7.8-2.8,8.3-6.6c0-0.3-0.1-2,0.1-2.1c0-1.6,0-2.8,0-3.8C31.2,31.8,28.2,33.8,25,33.8z"/>
		</g>
	</g>
	<g>
		<g>
			<path class="st12" d="M33.1,30.3c-2.1,2.1-5,3.4-8.1,3.4c-3.2,0-6.2-1.9-8.4-4.2c0,1,0,4.4,0,3.8c0.2,0.1,0.1,1.8,0.1,2.1
				c0.2,1.7,1,3.1,2.2,4.3C24.5,39,30.8,33.5,33.1,30.3z"/>
		</g>
	</g>
	<g>
		<path class="st8" d="M14.3,25.8H12c-0.4,0-0.8-0.3-0.8-0.8v-7.6c0-0.4,0.3-0.8,0.8-0.8h2.3V25.8z"/>
	</g>
	<g>
		<path class="st9" d="M37.2,24.2h2.3c0.4,0,0.8-0.3,0.8-0.8v-4.6c0-0.4-0.3-0.8-0.8-0.8h-2.3V24.2z"/>
	</g>
	<g>
		<path class="st8" d="M35.7,25.8H38c0.4,0,0.8-0.3,0.8-0.8v-7.6c0-0.4-0.3-0.8-0.8-0.8h-2.3V25.8z"/>
	</g>
	<g>
		<g>
			<path class="st13" d="M33.3,10.7H17.6c-2.5,0-4.6,2.1-4.6,4.6v5.5c0,7.1,5.4,12.9,12,12.9S37,28,37,20.9v-6.5
				C37,12.4,35.3,10.7,33.3,10.7z"/>
		</g>
	</g>
	<g>
		<g>
			<path class="st8" d="M31.5,30.3c-1.8,0-3.7-0.8-5.5-2.4c-0.3-0.3-0.3-0.8,0-1.1c0.3-0.3,0.8-0.3,1.1,0c1.9,1.8,4,2.4,5.9,1.8
				c1.8-0.6,3.3-2.4,3.7-4.5c0.1-0.4,0.5-0.7,0.9-0.6c0.4,0.1,0.7,0.5,0.6,0.9c-0.5,2.7-2.4,4.9-4.7,5.6
				C32.8,30.2,32.1,30.3,31.5,30.3z"/>
		</g>
	</g>
	<g>
		<circle class="st9" cx="26.5" cy="27.3" r="1.5"/>
	</g>
	<g>
		<path class="st14" d="M41.7,37.6l-5.2-1.2L25,42.6l-11.5-6.2l-5.2,1.2c-2.8,0.6-4.7,3.1-4.7,5.9v3.6c0,1.3,1,2.3,2.3,2.3h38.2
			c1.3,0,2.3-1,2.3-2.3v-3.6C46.4,40.7,44.4,38.3,41.7,37.6z"/>
	</g>
	<g>
		<rect x="24.2" y="41.8" class="st8" width="1.5" height="7.6"/>
	</g>
	<g>
		<path class="st15" d="M25,41.8l-4.6,4c-0.8,0.7-1.9,0.4-2.4-0.5l-4.5-8.9l3.1-3.1L25,41.8z"/>
	</g>
	<g>
		<path class="st15" d="M25,41.8l4.6,4c0.8,0.7,1.9,0.4,2.4-0.5l4.5-8.9l-3.1-3.1L25,41.8z"/>
	</g>
</g>
</svg>
