<?xml version="1.0" encoding="utf-8"?>
<!-- Generator: Adobe Illustrator 19.2.1, SVG Export Plug-In . SVG Version: 6.00 Build 0)  -->
<svg version="1.1" id="Capa_1" xmlns="http://www.w3.org/2000/svg" xmlns:xlink="http://www.w3.org/1999/xlink" x="0px" y="0px"
	 viewBox="0 0 50 50" style="enable-background:new 0 0 50 50;" xml:space="preserve">
<g>
	<g>
		<path d="M43,6.1H7c-3.5,0-6.4,2.9-6.4,6.4V30c0,3.5,2.9,6.4,6.4,6.4h15.4V41h-6.6c-0.8,0-1.5,0.7-1.5,1.4v0.2
			c0,0.8,0.7,1.5,1.5,1.5h18.4c0.8,0,1.5-0.7,1.5-1.5v-0.2c0-0.8-0.7-1.4-1.5-1.4h-6.6v-4.6H43c3.5,0,6.4-2.9,6.4-6.4V12.4
			C49.3,8.9,46.5,6.1,43,6.1z M41.1,22.7c0,2.2-1.8,3.9-3.9,3.9H12.9c-2.2,0-3.9-1.8-3.9-3.9v-3.1c0-2.2,1.8-3.9,3.9-3.9h24.2
			c2.2,0,3.9,1.8,3.9,3.9L41.1,22.7z"/>
		<path d="M18.6,21.1l-0.5-1.6l-1,0.5c-0.1,0.1-0.3,0.1-0.5,0.2c-0.1,0-0.2,0.1-0.4,0.2c0.1-0.3,0.2-0.7,0.2-0.9l0.1-1.1h-1.6
			l0.1,1.1c0,0.2,0.1,0.5,0.2,0.9c-0.4-0.3-0.7-0.4-0.8-0.5l-1-0.5L12.9,21l1.2,0.2c0.4,0.1,0.7,0.1,0.9,0.1
			c-0.2,0.2-0.5,0.4-0.7,0.6l-0.8,0.8l1.4,1l0.6-1c0.1-0.1,0.2-0.4,0.4-0.8c0.2,0.4,0.3,0.7,0.4,0.8l0.5,1l1.3-1l-0.8-0.8
			c-0.2-0.2-0.4-0.4-0.7-0.6c0.4,0,0.7,0,0.9-0.1L18.6,21.1z"/>
		<path d="M27.9,21.1l-0.5-1.6l-1,0.5c-0.1,0.1-0.3,0.1-0.5,0.2c-0.1,0-0.2,0.1-0.4,0.2c0.1-0.3,0.2-0.7,0.2-0.9l0.1-1.1h-1.6
			l0.1,1.1c0,0.2,0.1,0.5,0.2,0.9c-0.4-0.3-0.7-0.4-0.8-0.5l-1-0.5L22.2,21l1.2,0.2c0.4,0.1,0.7,0.1,0.9,0.1
			c-0.2,0.2-0.5,0.4-0.7,0.6l-0.8,0.8l1.4,1l0.6-1c0.1-0.1,0.2-0.4,0.4-0.8c0.2,0.4,0.3,0.7,0.4,0.8l0.5,1l1.3-1l-0.8-0.8
			c-0.2-0.2-0.4-0.4-0.7-0.6c0.4,0,0.7,0,0.9-0.1L27.9,21.1z"/>
		<path d="M35.6,20.1c-0.1,0.1-0.3,0.1-0.5,0.2c-0.1,0-0.2,0.1-0.4,0.2c0.1-0.3,0.2-0.7,0.2-0.9l0.1-1.1h-1.6l0.1,1.1
			c0,0.2,0.1,0.5,0.2,0.9c-0.4-0.3-0.7-0.4-0.8-0.5l-1-0.5l-0.5,1.6l1.2,0.2c0.4,0.1,0.7,0.1,0.9,0.1c-0.2,0.2-0.5,0.4-0.7,0.6
			L32,22.8l1.4,1l0.6-1c0.1-0.1,0.2-0.4,0.4-0.8c0.2,0.4,0.3,0.7,0.4,0.8l0.5,1l1.3-1L35.8,22c-0.2-0.2-0.4-0.4-0.7-0.6
			c0.4,0,0.7,0,0.9-0.1l1.1-0.2l-0.5-1.6L35.6,20.1z"/>
	</g>
</g>
</svg>
