<?xml version="1.0" encoding="utf-8"?>
<!-- Generator: Adobe Illustrator 19.2.1, SVG Export Plug-In . SVG Version: 6.00 Build 0)  -->
<svg version="1.1" id="Capa_1" xmlns="http://www.w3.org/2000/svg" xmlns:xlink="http://www.w3.org/1999/xlink" x="0px" y="0px"
	 viewBox="0 0 50 50" style="enable-background:new 0 0 50 50;" xml:space="preserve">
<style type="text/css">
	.st0{clip-path:url(#SVGID_2_);}
	.st1{fill:#F7D531;}
	.st2{fill:#1F449B;}
	.st3{fill:#D02A36;}
	.st4{fill:#FFFFFF;}
	.st5{fill:#EDEEF0;}
	.st6{fill:#C8523B;}
	.st7{opacity:0.3;fill:#5B5B5F;enable-background:new    ;}
	.st8{fill:#5C546A;}
	.st9{fill:#8A8895;}
	.st10{fill:#7E5C62;}
	.st11{fill:#FCC78D;}
	.st12{fill:#FFB87F;}
	.st13{fill:#FFE0B1;}
	.st14{fill:#527991;}
	.st15{fill:#5D647F;}
	.st16{fill:#23A24D;}
	.st17{fill:#231F20;}
	.st18{fill:#84BE55;}
	.st19{fill:#E7ECED;}
</style>
<path d="M48.5,33.7c-1.6-3-7.2-6.3-7.4-6.5c-0.7-0.4-1.5-0.6-2.2-0.6c-1,0-1.9,0.5-2.4,1.3c-0.8,1-1.8,2.1-2.1,2.3
	c-1.9,1.3-3.4,1.1-5-0.5l-9.2-9.2c-1.6-1.6-1.8-3.1-0.5-5c0.2-0.2,1.3-1.3,2.3-2.1c0.6-0.4,1-0.9,1.2-1.6c0.2-0.9,0.1-2-0.5-3
	c-0.1-0.2-3.4-5.8-6.5-7.4C15.7,1.2,15.1,1,14.4,1c-1.1,0-2,0.4-2.8,1.2l-2,2C6.4,7.4,5.2,11,6.2,15c0.8,3.3,3,6.8,6.6,10.5
	l11.8,11.8c3.9,3.9,7.7,6.2,11.2,6.8c-0.9,2-2.9,3.4-5.2,3.4c-2.5,0-4.7-1.6-5.4-4L24.5,41c-0.1-0.5-0.6-0.8-1.1-0.8
	c-0.5,0-0.9,0.3-1.1,0.8L21,45.4L19.7,41c-0.1-0.5-0.6-0.8-1.1-0.8s-0.9,0.3-1.1,0.8l-1.3,4.4L14.9,41c-0.1-0.5-0.6-0.8-1.1-0.8
	c-0.5,0-0.9,0.3-1.1,0.8l-1.3,4.4L10.1,41c-0.1-0.5-0.6-0.8-1.1-0.8c-0.5,0-0.9,0.3-1.1,0.8l-1.3,4.4L5.3,41
	c-0.1-0.5-0.6-0.8-1.1-0.8S3.3,40.5,3.1,41L1,48c-0.1,0.4,0.1,0.9,0.5,1c0.1,0,0.2,0,0.2,0c0.3,0,0.7-0.2,0.8-0.6L4.2,43l1.3,4.4
	c0.1,0.5,0.6,0.8,1.1,0.8s0.9-0.3,1.1-0.8L9,43l1.3,4.4c0.1,0.5,0.6,0.8,1.1,0.8c0.5,0,0.9-0.3,1.1-0.8l1.3-4.4l1.3,4.4
	c0.1,0.5,0.6,0.8,1.1,0.8c0.5,0,0.9-0.3,1.1-0.8l1.3-4.4l1.3,4.4c0.1,0.5,0.6,0.8,1.1,0.8c0.5,0,0.9-0.3,1.1-0.8l1.3-4.4l0.3,0.9
	c0.9,3.1,3.7,5.1,6.9,5.1c3.2,0,5.8-2,6.8-4.9c0.1,0,0.1,0,0.2,0c0,0,0,0,0,0c3,0,5.7-1.3,8.2-3.8l2-2
	C49.1,37.1,49.3,35.3,48.5,33.7z"/>
</svg>
