<?xml version="1.0" encoding="utf-8"?>
<!-- Generator: Adobe Illustrator 19.2.1, SVG Export Plug-In . SVG Version: 6.00 Build 0)  -->
<svg version="1.1" id="Capa_1" xmlns="http://www.w3.org/2000/svg" xmlns:xlink="http://www.w3.org/1999/xlink" x="0px" y="0px"
	 viewBox="0 0 50 50" style="enable-background:new 0 0 50 50;" xml:space="preserve">
<style type="text/css">
	.st0{clip-path:url(#SVGID_2_);}
	.st1{fill:#F7D531;}
	.st2{fill:#1F449B;}
	.st3{fill:#D02A36;}
	.st4{fill:#FFFFFF;}
	.st5{fill:#EDEEF0;}
	.st6{fill:#C8523B;}
	.st7{opacity:0.3;fill:#5B5B5F;enable-background:new    ;}
	.st8{fill:#5C546A;}
	.st9{fill:#8A8895;}
	.st10{fill:#7E5C62;}
	.st11{fill:#FCC78D;}
	.st12{fill:#FFB87F;}
	.st13{fill:#FFE0B1;}
	.st14{fill:#527991;}
	.st15{fill:#5D647F;}
	.st16{fill:#23A24D;}
	.st17{fill:#231F20;}
	.st18{fill:#84BE55;}
	.st19{fill:#E7ECED;}
</style>
<g>
	<defs>
		<circle id="SVGID_1_" cx="25.2" cy="25.3" r="22.8"/>
	</defs>
	<clipPath id="SVGID_2_">
		<use xlink:href="#SVGID_1_"  style="overflow:visible;"/>
	</clipPath>
	<g class="st0">
		<path class="st1" d="M53.5,2H-3.1C-6.3,2-9,5-9,8.2V18h68V8.2C59,5,56.7,2,53.5,2z"/>
		<path class="st2" d="M-9,32h68V18H-9V32z M13.6,31.6l-1.3-1l-1.4,0.9l0.6-1.6l-1.3-1l1.7,0.1l0.6-1.6l0.5,1.6l1.7,0.1L13.2,30
			L13.6,31.6z M15.3,27.8l-0.9-1.4l-1.6,0.4l1.1-1.3L13,24.1l1.5,0.6l1.1-1.3l-0.1,1.7l1.5,0.6l-1.6,0.4L15.3,27.8z M18.1,24.8
			l-0.3-1.6L16.1,23l1.4-0.8l-0.3-1.6l1.2,1.1l1.4-0.8l-0.7,1.5l1.2,1.1l-1.7-0.2L18.1,24.8z M24.5,22.5L23,21.8L21.8,23l0.2-1.6
			l-1.5-0.7l1.6-0.3l0.2-1.6l0.8,1.5l1.6-0.3L23.7,21L24.5,22.5z M28.6,23l-1.2-1.2L26,22.5l0.8-1.5l-1.2-1.2l1.6,0.3l0.8-1.5
			l0.2,1.6l1.6,0.3l-1.5,0.7L28.6,23z M30,23.5l1.2-1.1l-0.7-1.5l1.4,0.8l1.2-1.1l-0.3,1.6l1.4,0.8l-1.7,0.2l-0.3,1.6l-0.7-1.5
			L30,23.5z M33.5,25.8l1.5-0.6l-0.1-1.7l1.1,1.3l1.5-0.6l-0.9,1.4l1.1,1.3l-1.6-0.4l-0.9,1.4l-0.1-1.7L33.5,25.8z M39.5,31.5
			l-1.4-0.9l-1.3,1l0.5-1.6l-1.4-0.9l1.7-0.1l0.5-1.6l0.6,1.6l1.7-0.1L39,30L39.5,31.5z"/>
		<path class="st3" d="M-9,42.3c0,3.2,2.7,5.7,5.9,5.7h56.6c3.2,0,5.5-2.5,5.5-5.7V32H-9V42.3z"/>
		<polygon class="st4" points="23.2,20.1 22.5,18.7 22.2,20.3 20.6,20.6 22.1,21.3 21.8,23 23,21.8 24.5,22.5 23.7,21 24.9,19.8 		
			"/>
		<polygon class="st4" points="28.2,20.3 28,18.7 27.2,20.1 25.6,19.8 26.8,21 26,22.5 27.5,21.8 28.6,23 28.4,21.3 29.9,20.6 		"/>
		<polygon class="st4" points="19.2,22.4 19.9,20.9 18.5,21.7 17.2,20.6 17.6,22.2 16.1,23 17.8,23.2 18.1,24.8 18.8,23.3 
			20.5,23.5 		"/>
		<polygon class="st4" points="32.7,23.2 34.3,23 32.9,22.2 33.2,20.6 32,21.7 30.6,20.9 31.2,22.4 30,23.5 31.7,23.3 32.3,24.8 		
			"/>
		<polygon class="st4" points="15.5,25.2 15.6,23.5 14.5,24.8 13,24.1 13.8,25.6 12.8,26.8 14.4,26.4 15.3,27.8 15.4,26.2 17,25.8 
					"/>
		<polygon class="st4" points="36.1,26.4 37.7,26.8 36.6,25.6 37.5,24.1 36,24.8 34.9,23.5 35,25.2 33.5,25.8 35.1,26.2 35.2,27.8 
					"/>
		<polygon class="st4" points="12.9,29.1 12.4,27.5 11.8,29 10.2,29 11.5,30 10.9,31.5 12.3,30.6 13.6,31.6 13.2,30 14.5,29.1 		"/>
		<polygon class="st4" points="38.6,29 38.1,27.5 37.6,29.1 35.9,29.1 37.3,30 36.9,31.6 38.2,30.6 39.5,31.5 39,30 40.3,29 		"/>
	</g>
</g>
</svg>
