<?xml version="1.0" encoding="utf-8"?>
<!-- Generator: Adobe Illustrator 19.2.1, SVG Export Plug-In . SVG Version: 6.00 Build 0)  -->
<svg version="1.1" id="Capa_1" xmlns="http://www.w3.org/2000/svg" xmlns:xlink="http://www.w3.org/1999/xlink" x="0px" y="0px"
	 viewBox="0 0 50 50" style="enable-background:new 0 0 50 50;" xml:space="preserve">
<style type="text/css">
	.st0{clip-path:url(#SVGID_2_);}
	.st1{fill:#F7D531;}
	.st2{fill:#1F449B;}
	.st3{fill:#D02A36;}
	.st4{fill:#FFFFFF;}
	.st5{fill:#EDEEF0;}
	.st6{fill:#C8523B;}
	.st7{opacity:0.3;fill:#5B5B5F;enable-background:new    ;}
	.st8{fill:#5C546A;}
	.st9{fill:#8A8895;}
	.st10{fill:#7E5C62;}
	.st11{fill:#FCC78D;}
	.st12{fill:#FFB87F;}
	.st13{fill:#FFE0B1;}
	.st14{fill:#527991;}
	.st15{fill:#5D647F;}
	.st16{fill:#23A24D;}
	.st17{fill:#231F20;}
	.st18{fill:#84BE55;}
	.st19{fill:#E7ECED;}
</style>
<g>
	<g>
		<path d="M45.9,35.8l1.3-9.3c-1.3,0.5-2.9,0.9-4.9,1.3c-4.7,0.9-11,1.4-17.6,1.4S11.7,28.7,7,27.8c-2-0.4-3.7-0.8-4.9-1.3l1.3,9.3
			c0.1,0.3,0.3,0.7,0.5,0.9c1.7,1.4,5.3,3.1,12.5,3.9v-7.7c0-0.7,0.6-1.3,1.3-1.3h14c0.7,0,1.3,0.6,1.3,1.3v7.7
			c7.2-0.7,10.8-2.4,12.5-3.9C45.6,36.5,45.8,36.1,45.9,35.8z"/>
		<path d="M48.2,18.8C48,18.9,47.9,19,47.7,19c-1.3,0.6-3.1,1.1-5.5,1.5c-4.7,0.9-11,1.4-17.6,1.4S11.7,21.5,7,20.6
			c-2.3-0.4-4.2-1-5.5-1.5C1.3,19,1.1,18.9,1,18.8l0.8,5.8c0.1,0,0.2,0.1,0.3,0.2c1.2,0.5,2.9,1,5.1,1.4c4.6,0.9,10.8,1.3,17.3,1.3
			s12.7-0.5,17.3-1.3c2.2-0.4,4-0.9,5.1-1.4c0.1-0.1,0.2-0.1,0.3-0.2L48.2,18.8z"/>
		<path d="M2.1,17.6c1.2,0.5,2.9,1,5.1,1.4l0,0c0.1,0,0.1-0.1,0.2-0.1c3.9-0.9,10.2-1.4,17.1-1.4c6.9,0,13.4,0.5,17.2,1.5
			c0,0,0.1,0,0.1,0.1c0,0,0,0,0,0c2.2-0.4,4-0.9,5.1-1.4c1-0.4,1.3-0.8,1.4-1c0-0.1,0-0.1,0-0.1c0-0.1-0.3-0.5-1.5-1.1
			c-0.5-0.2-1.2-0.5-1.9-0.7V14v-0.8v-1l4-2.4c0.2-0.1,0.2-0.4,0-0.5l-4.5-2.6c-0.1,0-0.2-0.1-0.3-0.1c-0.4,0-0.8,0.4-0.8,0.8v5.5
			v0.8v0.8c-0.5-0.1-1.1-0.2-1.6-0.3c-4.4-0.8-10.2-1.3-16.5-1.3v-0.8v-0.8v-0.8l4-2.4c0.2-0.1,0.2-0.4,0-0.5L25,4.7
			c-0.1,0-0.2-0.1-0.3-0.1c-0.4,0-0.8,0.4-0.8,0.8v5.6v0.8v0.8c-6.3,0-12.2,0.5-16.6,1.3c-0.5,0.1-1,0.2-1.5,0.3v-0.8v-0.8v-0.6
			l4-2.4c0.2-0.1,0.2-0.4,0-0.5L5.2,6.5C5.1,6.5,5,6.5,4.9,6.5c-0.4,0-0.8,0.4-0.8,0.8v5.8v0.8v0.8c-0.8,0.2-1.5,0.5-2,0.7
			c-1.2,0.5-1.5,1-1.5,1.1c0,0,0,0.1,0,0.1C0.8,16.8,1.2,17.2,2.1,17.6z"/>
		<path d="M38.4,19.6c-3.7-0.5-8.6-0.9-13.9-0.9c-5.2,0-10.1,0.3-13.8,0.8c4,0.5,8.8,0.8,13.9,0.8C29.6,20.4,34.3,20.1,38.4,19.6z"
			/>
		<path d="M17.9,33.1v7.6v1.5l-0.8,0.3l-0.8,0.3l-1,0.3c-0.3,0.1-0.5,0.4-0.5,0.7v1c0,0.3,0.2,0.5,0.5,0.5h18.6
			c0.3,0,0.5-0.2,0.5-0.5v-1c0-0.3-0.2-0.6-0.5-0.7l-1-0.3l-0.8-0.3l-0.8-0.3v-1.5v-7.6h-1.9v6.8h-9.5v-6.8H17.9z"/>
	</g>
</g>
</svg>
