<?xml version="1.0" encoding="utf-8"?>
<!-- Generator: Adobe Illustrator 19.2.1, SVG Export Plug-In . SVG Version: 6.00 Build 0)  -->
<svg version="1.1" id="Capa_1" xmlns="http://www.w3.org/2000/svg" xmlns:xlink="http://www.w3.org/1999/xlink" x="0px" y="0px"
	 viewBox="0 0 50 50" style="enable-background:new 0 0 50 50;" xml:space="preserve">
<style type="text/css">
	.st0{clip-path:url(#SVGID_2_);}
	.st1{fill:#F7D531;}
	.st2{fill:#1F449B;}
	.st3{fill:#D02A36;}
	.st4{fill:#FFFFFF;}
	.st5{fill:#EDEEF0;}
	.st6{fill:#C8523B;}
	.st7{opacity:0.3;fill:#5B5B5F;enable-background:new    ;}
	.st8{fill:#5C546A;}
	.st9{fill:#8A8895;}
	.st10{fill:#7E5C62;}
	.st11{fill:#FCC78D;}
	.st12{fill:#FFB87F;}
	.st13{fill:#FFE0B1;}
	.st14{fill:#527991;}
	.st15{fill:#5D647F;}
	.st16{fill:#23A24D;}
	.st17{fill:#231F20;}
	.st18{fill:#84BE55;}
	.st19{fill:#E7ECED;}
</style>
<g>
	<circle class="st5" cx="25" cy="25" r="24.3"/>
	<path class="st6" d="M41.2,40.1L40,38.3c-0.3,0.2-0.6,0.4-0.9,0.6c-0.4-0.7-0.8-1.4-1.2-2.2l1-0.4L38,34.4l-1,0.4
		c-0.3-0.7-0.6-1.5-0.8-2.3l1-0.3l-0.5-2l-1,0.3c-0.2-0.8-0.3-1.5-0.4-2.3l1.1-0.1l-0.2-2.1l-1.1,0.1c0-0.4,0-0.8,0-1.2
		c0-0.4,0-0.8,0-1.2c0.3,0,0.7,0.1,1.1,0.1l0.2-2.1c-0.4,0-0.7-0.1-1.1-0.1c0.1-0.8,0.2-1.5,0.4-2.3c0.3,0.1,0.7,0.2,1,0.3l0.5-2
		c-0.4-0.1-0.7-0.2-1-0.3c0.2-0.8,0.5-1.5,0.8-2.3l1,0.4l0.9-1.9l-1-0.4c0.4-0.7,0.8-1.5,1.2-2.2l0.9,0.6l1.2-1.7l-1-0.7
		c0.5-0.6,0.9-1.3,1.4-1.9c-0.5-0.5-1-0.9-1.6-1.4c-0.6,0.7-1.1,1.4-1.6,2.1l-1.2-0.8L36.1,9l1.2,0.8c-0.5,0.8-0.9,1.6-1.4,2.5
		l-1.4-0.6l-0.9,1.9l1.4,0.6c-0.3,0.9-0.6,1.7-0.9,2.6c-0.4-0.1-0.9-0.2-1.5-0.4l-0.5,2c0.6,0.1,1,0.3,1.5,0.4
		c-0.2,0.9-0.3,1.8-0.5,2.7c-0.3,0-0.7-0.1-1-0.1l-0.5,0l-0.2,2.1l0.5,0c0.4,0,0.7,0.1,1,0.1c0,0.4,0,0.9,0,1.3c0,0.4,0,0.9,0,1.3
		l-1.5,0.1l0.2,2.1l1.5-0.1c0.1,0.9,0.3,1.8,0.5,2.7l-1.5,0.4l0.5,2l1.5-0.4c0.3,0.9,0.6,1.7,0.9,2.6l-1.4,0.6l0.9,1.9l1.4-0.6
		c0.4,0.8,0.9,1.7,1.4,2.5L36.1,41l1.2,1.7l1.2-0.8c0.5,0.7,1,1.4,1.6,2.1c0.6-0.4,1.1-0.9,1.6-1.4c-0.5-0.6-1-1.3-1.4-1.9
		C40.5,40.5,40.8,40.3,41.2,40.1z"/>
	<path class="st6" d="M17,25c0-0.4,0-0.9,0-1.3c0.3,0,0.7-0.1,1-0.1l0.4,0l-0.2-2.1l-0.4,0c-0.4,0-0.7,0.1-1,0.1
		c-0.1-0.9-0.3-1.8-0.5-2.7c0.4-0.1,0.9-0.2,1.5-0.4l-0.5-2c-0.6,0.1-1,0.3-1.5,0.4c-0.3-0.9-0.6-1.7-0.9-2.6l1.4-0.6l-0.9-1.9
		L14,12.3c-0.4-0.8-0.9-1.7-1.4-2.5L13.9,9l-1.2-1.7l-1.2,0.8C11,7.4,10.5,6.7,9.9,6C9.4,6.4,8.9,6.9,8.4,7.3c0.5,0.6,1,1.3,1.4,1.9
		l-1,0.7l1.2,1.7l0.9-0.6c0.4,0.7,0.8,1.4,1.2,2.2l-1,0.4l0.9,1.9l1-0.4c0.3,0.7,0.6,1.5,0.8,2.3c-0.3,0.1-0.7,0.2-1,0.3l0.5,2
		c0.4-0.1,0.7-0.2,1-0.3c0.2,0.8,0.3,1.5,0.4,2.3c-0.3,0-0.7,0.1-1.1,0.1l0.2,2.1c0.4,0,0.7-0.1,1.1-0.1c0,0.4,0,0.8,0,1.2
		c0,0.4,0,0.8,0,1.2l-1.1-0.1l-0.2,2.1l1.1,0.1c-0.1,0.8-0.2,1.5-0.4,2.3l-1-0.3l-0.5,2l1,0.3c-0.2,0.8-0.5,1.5-0.8,2.3l-1-0.4
		l-0.9,1.9l1,0.4c-0.4,0.7-0.8,1.5-1.2,2.2c-0.3-0.2-0.6-0.4-0.9-0.6l-1.2,1.7c0.4,0.2,0.7,0.5,1,0.7c-0.5,0.6-0.9,1.3-1.4,1.9
		c0.5,0.5,1,0.9,1.6,1.4c0.6-0.7,1.1-1.4,1.6-2.1l1.2,0.8l1.2-1.7l-1.2-0.8c0.5-0.8,0.9-1.6,1.4-2.5l1.4,0.6l0.9-1.9l-1.4-0.6
		c0.3-0.9,0.6-1.7,0.9-2.6l1.5,0.4l0.5-2l-1.5-0.4c0.2-0.9,0.3-1.8,0.5-2.7l1.5,0.1l0.2-2.1L17,26.3C17,25.9,17,25.4,17,25z"/>
	<path class="st7" d="M25,0.7v48.5c13.4,0,24.3-10.9,24.3-24.3S38.4,0.7,25,0.7z"/>
</g>
</svg>
