<?xml version="1.0" encoding="utf-8"?>
<!-- Generator: Adobe Illustrator 19.2.1, SVG Export Plug-In . SVG Version: 6.00 Build 0)  -->
<svg version="1.1" id="Capa_1" xmlns="http://www.w3.org/2000/svg" xmlns:xlink="http://www.w3.org/1999/xlink" x="0px" y="0px"
	 viewBox="0 0 50 50" style="enable-background:new 0 0 50 50;" xml:space="preserve">
<style type="text/css">
	.st0{clip-path:url(#SVGID_2_);}
	.st1{fill:#F7D531;}
	.st2{fill:#1F449B;}
	.st3{fill:#D02A36;}
	.st4{fill:#FFFFFF;}
	.st5{fill:#EDEEF0;}
	.st6{fill:#C8523B;}
	.st7{opacity:0.3;fill:#5B5B5F;enable-background:new    ;}
	.st8{fill:#5C546A;}
	.st9{fill:#8A8895;}
	.st10{fill:#7E5C62;}
	.st11{fill:#FCC78D;}
	.st12{fill:#FFB87F;}
	.st13{fill:#FFE0B1;}
	.st14{fill:#527991;}
	.st15{fill:#5D647F;}
	.st16{fill:#23A24D;}
	.st17{fill:#231F20;}
	.st18{fill:#84BE55;}
	.st19{fill:#E7ECED;}
</style>
<g>
	<polygon points="32.5,30 48.8,43 48.8,16.3 	"/>
	<polygon points="1.2,16.3 1.2,43 17.5,30 	"/>
	<path d="M19.4,29.7l4.7,4c0.5,0.4,1.3,0.4,1.8,0l4.7-3.9c0-0.1,0.3-0.3,0.4-0.3l16.6-14h-0.4c0.1-0.3,0.1-0.6,0-0.9l-2.6-8.3
		l-40.2,9c-0.1,0-0.2,0.1-0.3,0.1H2.3l16.6,14C19.1,29.4,19.3,29.6,19.4,29.7z M43.5,7.7l2.2,7c0.1,0.2,0,0.3-0.1,0.4
		c-0.1,0.1-0.2,0.2-0.4,0.2h-3.4l-1.1-3.5L33,13.5l0.6,1.8H9.8L43.5,7.7z"/>
	<path d="M27,34.6c-0.6,0.5-1.3,0.7-2,0.7c-0.7,0-1.4-0.2-2-0.7l-4.4-3.7l-16.1,13h45l-16.1-13L27,34.6z"/>
	<path d="M24.3,9.3H4.4C4,9.3,3.6,9.6,3.6,10v4.1C3.8,14,4,13.9,4.1,13.9L24.3,9.3z"/>
</g>
</svg>
