<?xml version="1.0" encoding="utf-8"?>
<!-- Generator: Adobe Illustrator 19.2.1, SVG Export Plug-In . SVG Version: 6.00 Build 0)  -->
<svg version="1.1" id="Capa_1" xmlns="http://www.w3.org/2000/svg" xmlns:xlink="http://www.w3.org/1999/xlink" x="0px" y="0px"
	 viewBox="0 0 50 50" style="enable-background:new 0 0 50 50;" xml:space="preserve">
<g id="XMLID_5_">
	<g>
		<g>
			<path d="M38.5,32c-1.9,2.6-5,4.3-8.4,4.3h-4.8c-1.7,0-3.1-1.1-3.6-2.5c-0.7-0.2-1.3-0.5-2-0.8c-1.3-0.7-2.6-1.6-3.7-2.7
				C9,31.8,3.8,38,3.8,45.5v1c0,1.3,1.1,2.4,2.4,2.4h37.6c1.3,0,2.4-1.1,2.4-2.4v-1C46.2,39.7,43.1,34.7,38.5,32z"/>
			<path d="M13.4,25.2c1,0,1.9-0.6,2.4-1.4v0.1l0,0c1.1,2.9,3.2,5.3,6.1,6.4c0.7-1.1,1.9-1.8,3.3-1.8H30c0.5,0,0.9-0.1,1.3-0.4
				c0.7-0.4,1.3-1.3,1.6-1.8c0.5-0.8,0.9-1.6,1.2-2.6c0.2,0.3,0.5,0.6,0.8,0.9v1.2c0,2.7-2.2,4.9-4.9,4.9h-4.8
				c-0.9,0-1.7,0.7-1.7,1.7c0,0.9,0.7,1.7,1.7,1.7H30c4.5,0,8.2-3.7,8.2-8.2v-1.2c0.7-0.5,1.1-1.3,1.1-2.2v-5v-1.9
				c0-0.9-0.5-1.7-1.1-2.2C37.7,6.5,31.9,1.1,25,1.1S12.3,6.5,11.8,13.3c-0.7,0.5-1.1,1.3-1.1,2.2v6.9C10.6,24,11.9,25.2,13.4,25.2z
				 M25,4.5c5.1,0,9.4,3.9,9.9,8.9c-0.3,0.3-0.6,0.6-0.8,1C32.5,10.3,29,7.5,25,7.5c-4.1,0-7.6,2.9-9.1,6.9l0,0
				c-0.2-0.4-0.5-0.7-0.8-1C15.6,8.4,19.9,4.5,25,4.5z"/>
		</g>
	</g>
</g>
</svg>
