<?xml version="1.0" encoding="utf-8"?>
<!-- Generator: Adobe Illustrator 19.2.1, SVG Export Plug-In . SVG Version: 6.00 Build 0)  -->
<svg version="1.1" id="Capa_1" xmlns="http://www.w3.org/2000/svg" xmlns:xlink="http://www.w3.org/1999/xlink" x="0px" y="0px"
	 viewBox="0 0 50 50" style="enable-background:new 0 0 50 50;" xml:space="preserve">
<style type="text/css">
	.st0{clip-path:url(#SVGID_2_);}
	.st1{fill:#F7D531;}
	.st2{fill:#1F449B;}
	.st3{fill:#D02A36;}
	.st4{fill:#FFFFFF;}
	.st5{fill:#EDEEF0;}
	.st6{fill:#C8523B;}
	.st7{opacity:0.3;fill:#5B5B5F;enable-background:new    ;}
	.st8{fill:#5C546A;}
	.st9{fill:#8A8895;}
	.st10{fill:#7E5C62;}
	.st11{fill:#FCC78D;}
	.st12{fill:#FFB87F;}
	.st13{fill:#FFE0B1;}
	.st14{fill:#527991;}
	.st15{fill:#5D647F;}
	.st16{fill:#23A24D;}
	.st17{fill:#231F20;}
	.st18{fill:#84BE55;}
	.st19{fill:#E7ECED;}
</style>
<g id="XMLID_857_">
	<g>
		<path d="M44.5,17.1H30.1c3.1-1,6.3-3.1,7.6-4.4c2.8-2.8,2.8-7.3,0-10.1c-2.8-2.8-7.3-2.8-10.1,0c-0.8,0.8-1.8,2.2-2.6,3.7
			c-0.8-1.5-1.8-2.9-2.6-3.7c-2.8-2.8-7.3-2.8-10.1,0c-2.8,2.8-2.8,7.3,0,10.1c1.2,1.2,4.5,3.4,7.6,4.4H5.5c-1,0-1.8,0.8-1.8,1.8
			v8.5c0,1,0.8,1.8,1.8,1.8h1.8v18.2c0,1,0.8,1.8,1.8,1.8h11.2c0-0.3,0-32,0-32.3h4.3h4.9c0,0.3,0,32.1,0,32.3h11.2
			c1,0,1.8-0.8,1.8-1.8V29.3h1.8c1,0,1.8-0.8,1.8-1.8v-8.5C46.3,17.9,45.5,17.1,44.5,17.1z M15.5,9.5c-1-1-1-2.6,0-3.6
			c1-1,2.6-1,3.6,0c0.6,0.6,1.7,2.2,2.5,4c0.6,1.3,1,3.1,1,3.3C20.7,12.9,16.8,10.8,15.5,9.5z M27.2,13.1c0.1-1,0.6-2.4,1.1-3.3
			c0.9-1.8,1.9-3.4,2.5-4c1-1,2.6-1,3.6,0c1,1,1,2.6,0,3.6C33.2,10.8,29.2,13,27.2,13.1z"/>
	</g>
</g>
</svg>
