<?xml version="1.0" encoding="utf-8"?>
<!-- Generator: Adobe Illustrator 19.2.1, SVG Export Plug-In . SVG Version: 6.00 Build 0)  -->
<svg version="1.1" id="Capa_1" xmlns="http://www.w3.org/2000/svg" xmlns:xlink="http://www.w3.org/1999/xlink" x="0px" y="0px"
	 viewBox="0 0 50 50" style="enable-background:new 0 0 50 50;" xml:space="preserve">
<style type="text/css">
	.st0{clip-path:url(#SVGID_2_);}
	.st1{fill:#F7D531;}
	.st2{fill:#1F449B;}
	.st3{fill:#D02A36;}
	.st4{fill:#FFFFFF;}
	.st5{fill:#EDEEF0;}
	.st6{fill:#C8523B;}
	.st7{opacity:0.3;fill:#5B5B5F;enable-background:new    ;}
	.st8{fill:#5C546A;}
	.st9{fill:#8A8895;}
	.st10{fill:#7E5C62;}
	.st11{fill:#FCC78D;}
	.st12{fill:#FFB87F;}
	.st13{fill:#FFE0B1;}
	.st14{fill:#527991;}
	.st15{fill:#5D647F;}
	.st16{fill:#23A24D;}
	.st17{fill:#231F20;}
	.st18{fill:#84BE55;}
	.st19{fill:#E7ECED;}
</style>
<g>
	<g>
		<g>
			<path d="M32.9,26.6c-2.3,1.1-4.2,4.4-6.4,2.2c-1.3-1.4-2.9-3.7-4.7-6.4c-2-2.8-4.5-5.2-7.4-2.5c-3.3,3.1-5.6,11.5-5.7,15.8
				l31.1,0C39,33.3,36.3,25,32.9,26.6z"/>
		</g>
		<g>
			<circle cx="32.8" cy="17.9" r="3.8"/>
		</g>
	</g>
	<g>
		<path d="M25.2,49.7c-13.5,0-24.4-11-24.4-24.4s11-24.4,24.4-24.4s24.4,11,24.4,24.4S38.7,49.7,25.2,49.7z M25.2,4.5
			c-11.5,0-20.8,9.3-20.8,20.8s9.3,20.8,20.8,20.8S46,36.7,46,25.3S36.7,4.5,25.2,4.5z"/>
	</g>
</g>
</svg>
